<svg width="19" height="20" viewBox="0 0 19 20" fill="none" xmlns="http://www.w3.org/2000/svg">
<path fill-rule="evenodd" clip-rule="evenodd" d="M9.66667 0.833374C4.60417 0.833374 0.5 4.93754 0.5 10C0.5 15.0625 4.60417 19.1667 9.66667 19.1667C14.7292 19.1667 18.8333 15.0625 18.8333 10C18.8333 4.93754 14.7292 0.833374 9.66667 0.833374ZM13.64 8.45004C13.7132 8.36641 13.7689 8.26899 13.8038 8.16351C13.8388 8.05804 13.8523 7.94664 13.8436 7.83586C13.8348 7.72509 13.804 7.61718 13.753 7.51848C13.7019 7.41978 13.6317 7.33229 13.5463 7.26116C13.4609 7.19002 13.3622 7.13668 13.2559 7.10426C13.1496 7.07184 13.0379 7.06101 12.9274 7.0724C12.8169 7.08378 12.7097 7.11716 12.6123 7.17057C12.5148 7.22397 12.4291 7.29633 12.36 7.38337L8.77667 11.6825L6.9225 9.82754C6.76533 9.67574 6.55483 9.59175 6.33633 9.59365C6.11783 9.59554 5.90882 9.68318 5.75432 9.83769C5.59981 9.9922 5.51217 10.2012 5.51027 10.4197C5.50837 10.6382 5.59237 10.8487 5.74417 11.0059L8.24417 13.5059C8.32605 13.5877 8.42408 13.6516 8.53201 13.6934C8.63995 13.7353 8.75541 13.7542 8.87106 13.7489C8.9867 13.7437 9.09998 13.7144 9.20368 13.6629C9.30737 13.6115 9.39921 13.539 9.47333 13.45L13.64 8.45004Z" fill="#131316"/>
</svg>
