<svg width="86" height="25" viewBox="0 0 86 25" fill="none" xmlns="http://www.w3.org/2000/svg">
<path d="M16.2487 9.93654C15.3517 10.6833 14.9034 11.7219 15.0258 12.7699L15.0047 12.7525C15.1306 13.9857 14.5929 15.2021 13.5352 16.0772C12.4774 16.9524 11.0072 17.3972 9.51667 17.2931L9.53771 17.3105C7.73299 17.1715 6.0167 17.9837 5.24652 19.3413C4.47633 20.6988 5.7338 21.2479 7.01602 22.3078C8.29825 23.3677 9.32991 24.7108 10.97 24.0724C12.61 23.4339 13.5901 22.0132 13.4205 20.5201L13.4427 20.5376C13.3169 19.3043 13.8546 18.0879 14.9123 17.2128C15.97 16.3376 17.4403 15.8928 18.9308 15.9969L18.9086 15.9795C20.892 16.1271 22.7377 15.1264 23.3659 13.5629C23.9941 11.9994 22.525 11.3319 20.8295 10.4676C19.1341 9.60329 17.6577 8.76922 16.2523 9.93654H16.2487Z" fill="white"/>
<path d="M8.42743 15.0734C9.32464 14.3268 9.7726 13.288 9.64921 12.2401L9.67143 12.2575C9.54551 11.0239 10.0835 9.80716 11.1417 8.93195C12.2 8.05674 13.6709 7.61217 15.1618 7.71687L15.1396 7.69946C16.9439 7.83931 18.6604 7.02807 19.4313 5.67118C20.2022 4.3143 18.1647 3.63463 16.8833 2.57445C15.6019 1.51428 15.3518 0.301273 13.7118 0.939082C12.0718 1.57689 11.0913 2.99707 11.2603 4.48985L11.2393 4.47244C11.3651 5.70568 10.8274 6.92209 9.76972 7.79723C8.71198 8.67236 7.24176 9.1172 5.7512 9.0131L5.77225 9.03051C3.78887 8.88335 2.38208 9.23326 1.75422 10.7968C1.12635 12.3603 1.75422 12.7702 3.39868 13.7568C5.09416 14.6209 7.02446 16.2407 8.42977 15.0734H8.42743Z" fill="white"/>
<path d="M34.024 21.3861C36.8301 21.3861 38.8244 20.1077 38.8244 17.5956V7.68155H36.1206V9.3307H36.0183C35.654 8.53169 34.855 7.55371 33.2122 7.55371C31.0581 7.55371 29.2364 9.22843 29.2364 12.5715C29.2364 15.8378 31.0069 17.3591 33.2186 17.3591C34.7846 17.3591 35.6604 16.5729 36.0183 15.7611H36.1334V17.5573C36.1334 18.906 35.2704 19.4301 34.0879 19.4301C32.8862 19.4301 32.279 18.906 32.0552 18.3115L29.5368 18.6503C29.8628 20.1972 31.3777 21.3861 34.024 21.3861ZM34.0815 15.3137C32.7456 15.3137 32.0169 14.2526 32.0169 12.5587C32.0169 10.8904 32.7328 9.72061 34.0815 9.72061C35.4047 9.72061 36.1462 10.8392 36.1462 12.5587C36.1462 14.2909 35.3919 15.3137 34.0815 15.3137Z" fill="white"/>
<path d="M42.6724 21.1816C44.6987 21.1816 45.7726 20.146 46.3287 18.5608L50.1447 7.69434L47.2619 7.68155L45.2101 14.8918H45.1078L43.0751 7.68155H40.2115L43.7335 17.781L43.5737 18.1965C43.2158 19.1169 42.5318 19.1617 41.573 18.8676L40.9594 20.9003C41.3493 21.0665 41.9821 21.1816 42.6724 21.1816Z" fill="white"/>
<path d="M51.5382 17.4997H54.2612V11.6063C54.2612 10.5196 54.9515 9.79732 55.8592 9.79732C56.7541 9.79732 57.355 10.411 57.355 11.3762V17.4997H59.9949V11.504C59.9949 10.4877 60.5766 9.79732 61.5673 9.79732C62.4366 9.79732 63.0886 10.3406 63.0886 11.4337V17.4997H65.8052V10.8967C65.8052 8.7682 64.5396 7.55371 62.7115 7.55371C61.2733 7.55371 60.1547 8.2888 59.752 9.4138H59.6497C59.3365 8.27601 58.3329 7.55371 56.9842 7.55371C55.6611 7.55371 54.6575 8.25684 54.2484 9.4138H54.1334V7.68155H51.5382V17.4997Z" fill="white"/>
<path d="M68.2385 17.4998H70.0538V13.5708C70.0538 12.8464 70.514 12.3649 71.1191 12.3649C71.7157 12.3649 72.1163 12.774 72.1163 13.4174V17.4998H73.8762V13.5027C73.8762 12.8251 74.264 12.3649 74.9245 12.3649C75.5041 12.3649 75.9387 12.7271 75.9387 13.4558V17.4998H77.7498V13.0978C77.7498 11.6788 76.9061 10.8691 75.6873 10.8691C74.7285 10.8691 73.9828 11.3592 73.7143 12.1092H73.6461C73.4373 11.3507 72.7683 10.8691 71.8691 10.8691C70.987 10.8691 70.318 11.3379 70.0453 12.1092H69.9686V10.9544H68.2385V17.4998Z" fill="#4AE290"/>
<path d="M82.1667 17.6277C83.786 17.6277 84.877 16.8393 85.1326 15.6248L83.4537 15.514C83.2704 16.0126 82.8017 16.2725 82.1966 16.2725C81.2889 16.2725 80.7136 15.6717 80.7136 14.6958V14.6916H85.171V14.193C85.171 11.9686 83.8244 10.8691 82.0943 10.8691C80.1682 10.8691 78.9196 12.237 78.9196 14.2569C78.9196 16.3322 80.1511 17.6277 82.1667 17.6277ZM80.7136 13.5666C80.752 12.8208 81.3187 12.2243 82.1241 12.2243C82.9125 12.2243 83.4579 12.7868 83.4622 13.5666H80.7136Z" fill="#4AE290"/>
</svg>
